<svg width="448" height="512" viewBox="0 0 448 512" fill="none" xmlns="http://www.w3.org/2000/svg">
<g clip-path="url(#clip0_2_2)">
<path d="M170.5 51.6L151.5 80H296.5L277.5 51.6C276 49.4 273.5 48 270.8 48H177.1C174.4 48 171.9 49.3 170.4 51.6H170.5ZM317.5 25L354.2 80H368H416H424C437.3 80 448 90.7 448 104C448 117.3 437.3 128 424 128H416V432C416 476.2 380.2 512 336 512H112C67.8 512 32 476.2 32 432V128H24C10.7 128 0 117.3 0 104C0 90.7 10.7 80 24 80H32H80H93.8L130.5 24.9C140.9 9.4 158.4 0 177.1 0H270.8C289.5 0 307 9.4 317.4 24.9L317.5 25ZM80 128V432C80 449.7 94.3 464 112 464H336C353.7 464 368 449.7 368 432V128H80ZM160 192V400C160 408.8 152.8 416 144 416C135.2 416 128 408.8 128 400V192C128 183.2 135.2 176 144 176C152.8 176 160 183.2 160 192ZM240 192V400C240 408.8 232.8 416 224 416C215.2 416 208 408.8 208 400V192C208 183.2 215.2 176 224 176C232.8 176 240 183.2 240 192ZM320 192V400C320 408.8 312.8 416 304 416C295.2 416 288 408.8 288 400V192C288 183.2 295.2 176 304 176C312.8 176 320 183.2 320 192Z" fill="#FF0000"/>
</g>
<defs>
<clipPath id="clip0_2_2">
<rect width="448" height="512" fill="white"/>
</clipPath>
</defs>
</svg>
